<svg width="100" height="100" viewBox="0 0 100 100" fill="none" xmlns="http://www.w3.org/2000/svg">
<path d="M25 79.1667V83.3334C25 84.5139 24.6007 85.5035 23.8021 86.3021C23.0035 87.1007 22.0139 87.5 20.8333 87.5H16.6667C15.4861 87.5 14.4965 87.1007 13.6979 86.3021C12.8993 85.5035 12.5 84.5139 12.5 83.3334V50L21.25 25C21.6667 23.75 22.4132 22.7431 23.4896 21.9792C24.566 21.2153 25.7639 20.8334 27.0833 20.8334H72.9167C74.2361 20.8334 75.434 21.2153 76.5104 21.9792C77.5868 22.7431 78.3333 23.75 78.75 25L87.5 50V83.3334C87.5 84.5139 87.1007 85.5035 86.3021 86.3021C85.5035 87.1007 84.5139 87.5 83.3333 87.5H79.1667C77.9861 87.5 76.9965 87.1007 76.1979 86.3021C75.3993 85.5035 75 84.5139 75 83.3334V79.1667H25ZM24.1667 41.6667H75.8333L71.4583 29.1667H28.5417L24.1667 41.6667ZM31.25 66.6667C32.9861 66.6667 34.4618 66.0591 35.6771 64.8438C36.8924 63.6285 37.5 62.1528 37.5 60.4167C37.5 58.6806 36.8924 57.2049 35.6771 55.9896C34.4618 54.7743 32.9861 54.1667 31.25 54.1667C29.5139 54.1667 28.0382 54.7743 26.8229 55.9896C25.6076 57.2049 25 58.6806 25 60.4167C25 62.1528 25.6076 63.6285 26.8229 64.8438C28.0382 66.0591 29.5139 66.6667 31.25 66.6667ZM68.75 66.6667C70.4861 66.6667 71.9618 66.0591 73.1771 64.8438C74.3924 63.6285 75 62.1528 75 60.4167C75 58.6806 74.3924 57.2049 73.1771 55.9896C71.9618 54.7743 70.4861 54.1667 68.75 54.1667C67.0139 54.1667 65.5382 54.7743 64.3229 55.9896C63.1076 57.2049 62.5 58.6806 62.5 60.4167C62.5 62.1528 63.1076 63.6285 64.3229 64.8438C65.5382 66.0591 67.0139 66.6667 68.75 66.6667ZM20.8333 70.8334H79.1667V50H20.8333V70.8334Z" fill="#1D1B20"/>
</svg>
