<svg xmlns="http://www.w3.org/2000/svg" xml:space="preserve" viewBox="0 0 566.929 65.197" capitalizedName="All" class="_vmos-brandswitcher__item--mb_197zi_97"><path d="M363.78 36.358h21.103v4.881H363.78zM12.844 6.737l-1.888 49.015v.85c0 4.155 1.227 5.006 7.837 5.478v2.266c-4.816-.376-6.704-.472-9.349-.472-2.644 0-4.532.096-9.444.472V62.08c6.61-.472 7.556-1.227 7.744-6.328L9.728 9.384v-.567c0-4.345-1.323-5.29-7.839-5.667V.79c3.683.282 5.1.378 7.744.378 3.495 0 5.383-.096 8.972-.474l17.566 47.787L54.02.694c4.25.378 6.233.474 9.067.474 2.36 0 3.871-.096 7.46-.379V3.15c-6.422.378-7.838 1.322-7.838 5.574v.66l1.039 46.369c.095 5.1.944 5.856 7.744 6.328v2.267c-5.95-.567-8.216-.756-11.805-.756-3.588 0-5.855.189-11.804.756V62.08c6.42-.377 7.837-1.417 7.837-5.857v-.472l-.85-48.92-15.582 42.12-1.133 3.117-1.323 3.495-1.228 3.588-1.039 3.117H33.15l-1.038-3.023-1.323-3.682-1.323-3.683-1.133-3.307zm70.918 30.505c.946-10.86 4.534-16.433 10.578-16.433 6.138 0 9.256 5.29 9.822 16.433Zm12.276 24.742c-8.592 0-12.37-6.61-12.464-21.343h28.142c-.19-14.544-6.139-22.29-17.283-22.29-11.333 0-18.416 9.16-18.416 23.707 0 14.544 7.084 23.046 19.267 23.046 9.256 0 15.3-5.763 16.528-15.49h-3.778c-1.133 8.027-5.289 12.371-11.994 12.371m21.298-40.137v-1.7c5.384-.472 8.594-1.039 12.467-2.172.472 3.494.661 5.005.85 7.84v1.037c2.078-5.383 6.138-8.5 11.05-8.5 4.721 0 8.216 3.117 8.216 7.65 0 2.74-1.605 4.534-3.967 4.534-2.172 0-3.872-1.323-3.872-3.21 0-.19.095-.567.188-.946l.19-.944v-.85c0-1.323-1.134-2.267-2.834-2.267-4.91 0-8.026 5.95-8.026 15.3v19.738c0 4.06.944 4.816 6.706 5.099v1.89c-5.196-.473-7.178-.567-10.484-.567-3.4 0-5.384.094-10.578.566v-1.889c5.761-.283 6.8-1.039 6.8-5.099v-30.88c-.094-4.062-.567-4.534-5.478-4.628Zm68.71-4.344v15.581h-2.08c-1.7-8.216-5.192-12.183-10.954-12.183-7.082 0-11.24 7.65-11.24 21.155 0 13.223 3.686 19.928 10.956 19.928q8.784 0 10.484-12.467h3.872c-1.228 10.107-6.61 15.586-15.11 15.586-10.955 0-18.415-9.256-18.415-23.046 0-14.07 7.555-23.705 18.697-23.705 4.062 0 6.61 1.04 9.634 3.968l2.55-4.816Zm15.509 19.738c.944-10.86 4.532-16.433 10.577-16.433 6.139 0 9.253 5.29 9.821 16.433zm12.277 24.743c-8.595 0-12.373-6.61-12.467-21.343h28.144c-.189-14.544-6.138-22.289-17.282-22.289-11.334 0-18.417 9.16-18.417 23.707 0 14.542 7.083 23.044 19.266 23.044 9.256 0 15.3-5.763 16.528-15.49h-3.779c-1.133 8.027-5.288 12.371-11.993 12.371m41.832.567c-6.8 0-10.39-7.084-10.39-20.59 0-13.693 3.307-20.398 10.105-20.398 6.989 0 10.578 7.178 10.578 21.061 0 13.127-3.493 19.925-10.293 19.925m17.753-8.026V0c-4.722 1.259-8.972 2.013-14.26 2.581v1.606c5.95 0 6.704.661 6.704 5.572v16.528c-3.493-5.667-6.232-7.37-11.332-7.37-10.105 0-17.186 9.54-17.186 23.14s7.174 23.136 17.469 23.136c5.383 0 9.067-2.453 11.71-7.744.378 3.588.378 3.966 1.322 7.555 3.872-1.227 5.477-1.605 11.05-2.265l1.417-.19v-1.605c-6.328-.188-6.894-.66-6.894-6.423m18.216-17.28c.944-10.86 4.534-16.433 10.578-16.433 6.138 0 9.254 5.29 9.82 16.433zm12.278 24.743c-8.595 0-12.372-6.61-12.467-21.343h28.144c-.19-14.544-6.139-22.289-17.283-22.289-11.333 0-18.417 9.16-18.417 23.707 0 14.542 7.084 23.044 19.267 23.044 9.254 0 15.298-5.763 16.526-15.49h-3.777c-1.132 8.027-5.288 12.371-11.993 12.371m23.693 3.212V49.424l2.076-.094c1.701 8.595 5.666 12.75 12.28 12.75 5.57 0 9.725-3.683 9.725-8.5 0-3.211-1.793-5.383-6.421-7.462l-3.59-1.604-4.344-1.984c-6.893-3.21-9.066-5.854-9.066-11.333 0-7.46 5.854-12.56 14.166-12.56 3.684 0 6.422.85 9.634 3.021l1.605-3.87h1.7v14.636h-2.173c-.85-7.555-3.966-11.143-9.915-11.143-5.005 0-8.879 3.399-8.879 7.839 0 3.776 1.416 5.005 10.014 8.781l3.964 1.701c7.177 3.116 9.728 6.138 9.728 11.711 0 7.932-6.327 13.599-15.206 13.599-4.344 0-7.744-1.134-11.333-3.967l-2.265 4.252Zm83.02-32.583c5.004 0 7.837.85 10.009 3.022 2.17 2.172 3.4 6.233 3.4 10.768 0 9.442-4.724 14.732-13.128 14.732h-3.4c-5.005 0-5.856-.756-5.856-4.911v-23.61Zm-8.974-28.617h8.027c7.933 0 11.427 3.872 11.427 12.656 0 4.344-1.038 7.461-3.116 9.916-2.078 2.36-4.627 3.116-9.916 3.116h-6.423Zm27.86 12.467c0-4.912-2.078-9.255-5.666-11.995-3.211-2.361-6.894-3.4-13.034-3.4h-24.838v2.36c6.8.379 7.744 1.136 7.744 6.235v45.805c0 5.1-.755 5.76-7.744 6.328v2.267h23.893c6.99 0 10.768-.851 14.733-3.307 4.723-3.021 7.84-8.783 7.84-14.733 0-5.099-2.173-9.727-5.857-12.56-1.983-1.51-4.06-2.36-7.46-3.023 6.8-2.55 10.39-7.365 10.39-13.976m18.342 20.777c.947-10.86 4.533-16.433 10.577-16.433 6.139 0 9.256 5.29 9.823 16.433Zm12.28 24.743c-8.597 0-12.373-6.61-12.47-21.343h28.144c-.189-14.544-6.138-22.289-17.28-22.289-11.333 0-18.418 9.16-18.418 23.707 0 14.542 7.084 23.044 19.267 23.044 9.254 0 15.298-5.763 16.526-15.49h-3.777c-1.134 8.027-5.29 12.371-11.993 12.371m20.675-39.76V20.62c5.478-.755 8.688-1.51 12.466-2.834.473 2.174.756 4.628.945 8.216 3.399-5.1 7.27-7.365 12.75-7.365 5.666 0 10.575 2.928 12.465 7.555.944 2.266 1.417 4.91 1.417 8.5v22.666c0 4.06.945 4.816 6.705 5.099v1.89c-5.005-.473-6.894-.567-10.293-.567-3.496 0-5.384.094-10.295.566v-1.889c5.1-.19 6.328-1.133 6.328-4.91v-23.14c0-8.215-2.456-11.52-8.5-11.52-6.42 0-9.82 4.06-9.82 11.805v22.854c0 3.778 1.226 4.722 6.136 4.911v1.89c-4.91-.473-6.8-.567-10.2-.567-3.306 0-5.288.094-10.2.566v-1.889c5.763-.283 6.707-1.039 6.707-5.1V26.758c-.095-3.872-.66-4.438-5.383-4.438-.282 0-.756-.094-1.228-.094m50.419 41.838 25.593-42.123h-11.616c-6.138 0-7.649 1.323-11.049 9.823h-1.89l2.174-12.278h32.487l-25.687 42.12h11.05c6.42 0 9.066-2.549 11.897-11.142h1.986l-2.458 13.6Z"></path></svg>