<svg width="567" height="66" viewBox="0 0 567 66" fill="none" xmlns="http://www.w3.org/2000/svg">
<g clip-path="url(#clip0_2003_144)">
<path d="M363.78 36.358H384.883V41.239H363.78V36.358ZM12.844 6.737L10.956 55.752V56.602C10.956 60.757 12.183 61.608 18.793 62.08V64.346C13.977 63.97 12.089 63.874 9.444 63.874C6.8 63.874 4.912 63.97 0 64.346V62.08C6.61 61.608 7.556 60.853 7.744 55.752L9.728 9.384V8.817C9.728 4.472 8.405 3.527 1.889 3.15V0.79C5.572 1.072 6.989 1.168 9.633 1.168C13.128 1.168 15.016 1.072 18.605 0.694L36.171 48.481L54.02 0.694C58.27 1.072 60.253 1.168 63.087 1.168C65.447 1.168 66.958 1.072 70.547 0.789V3.15C64.125 3.528 62.709 4.472 62.709 8.724V9.384L63.748 55.753C63.843 60.853 64.692 61.609 71.492 62.081V64.348C65.542 63.781 63.276 63.592 59.687 63.592C56.099 63.592 53.832 63.781 47.883 64.348V62.08C54.303 61.703 55.72 60.663 55.72 56.223V55.751L54.87 6.831L39.288 48.951L38.155 52.068L36.832 55.563L35.604 59.151L34.565 62.268H33.15L32.112 59.245L30.789 55.563L29.466 51.88L28.333 48.573L12.844 6.737ZM83.762 37.242C84.708 26.382 88.296 20.809 94.34 20.809C100.478 20.809 103.596 26.099 104.162 37.242H83.762ZM96.038 61.984C87.446 61.984 83.668 55.374 83.574 40.641H111.716C111.526 26.097 105.577 18.351 94.433 18.351C83.1 18.351 76.017 27.511 76.017 42.058C76.017 56.602 83.101 65.104 95.284 65.104C104.54 65.104 110.584 59.341 111.812 49.614H108.034C106.901 57.641 102.745 61.985 96.04 61.985M117.338 21.848V20.148C122.722 19.676 125.932 19.109 129.805 17.976C130.277 21.47 130.466 22.981 130.655 25.816V26.853C132.733 21.47 136.793 18.353 141.705 18.353C146.426 18.353 149.921 21.47 149.921 26.003C149.921 28.743 148.316 30.537 145.954 30.537C143.782 30.537 142.082 29.214 142.082 27.327C142.082 27.137 142.177 26.76 142.27 26.381L142.46 25.437V24.587C142.46 23.264 141.326 22.32 139.626 22.32C134.716 22.32 131.6 28.27 131.6 37.62V57.358C131.6 61.418 132.544 62.174 138.306 62.457V64.347C133.11 63.874 131.128 63.78 127.822 63.78C124.422 63.78 122.438 63.874 117.244 64.346V62.457C123.005 62.174 124.044 61.418 124.044 57.358V26.478C123.95 22.416 123.477 21.944 118.566 21.85L117.338 21.848ZM186.048 17.504V33.085H183.968C182.268 24.869 178.776 20.902 173.014 20.902C165.932 20.902 161.774 28.552 161.774 42.057C161.774 55.28 165.46 61.985 172.73 61.985C178.586 61.985 182.081 57.8293 183.214 49.518H187.086C185.858 59.625 180.476 65.104 171.976 65.104C161.021 65.104 153.561 55.848 153.561 42.058C153.561 27.988 161.116 18.353 172.258 18.353C176.32 18.353 178.868 19.393 181.892 22.321L184.442 17.505L186.048 17.504ZM201.557 37.242C202.501 26.382 206.089 20.809 212.134 20.809C218.273 20.809 221.387 26.099 221.955 37.242H201.557ZM213.834 61.985C205.239 61.985 201.461 55.375 201.367 40.642H229.511C229.322 26.098 223.373 18.353 212.229 18.353C200.895 18.353 193.812 27.513 193.812 42.06C193.812 56.602 200.895 65.104 213.078 65.104C222.334 65.104 228.378 59.341 229.606 49.614H225.827C224.694 57.641 220.539 61.985 213.834 61.985ZM255.666 62.552C248.866 62.552 245.276 55.468 245.276 41.962C245.276 28.269 248.583 21.564 255.381 21.564C262.37 21.564 265.959 28.742 265.959 42.625C265.959 55.752 262.466 62.55 255.666 62.55M273.419 54.524V0C268.697 1.259 264.447 2.013 259.159 2.581V4.187C265.109 4.187 265.863 4.848 265.863 9.759V26.287C262.37 20.62 259.631 18.917 254.531 18.917C244.426 18.917 237.345 28.457 237.345 42.057C237.345 55.657 244.519 65.193 254.814 65.193C260.197 65.193 263.881 62.74 266.524 57.449C266.902 61.037 266.902 61.415 267.846 65.004C271.718 63.777 273.323 63.399 278.896 62.739L280.313 62.549V60.944C273.985 60.756 273.419 60.284 273.419 54.521M291.635 37.241C292.579 26.381 296.169 20.808 302.213 20.808C308.351 20.808 311.467 26.098 312.033 37.241H291.635ZM303.913 61.984C295.318 61.984 291.541 55.374 291.446 40.641H319.59C319.4 26.097 313.451 18.352 302.307 18.352C290.974 18.352 283.89 27.512 283.89 42.059C283.89 56.601 290.974 65.103 303.157 65.103C312.411 65.103 318.455 59.34 319.683 49.613H315.906C314.774 57.64 310.618 61.984 303.913 61.984ZM327.606 65.196V49.424L329.682 49.33C331.383 57.925 335.348 62.08 341.962 62.08C347.532 62.08 351.687 58.397 351.687 53.58C351.687 50.369 349.894 48.197 345.266 46.118L341.676 44.514L337.332 42.53C330.439 39.32 328.266 36.676 328.266 31.197C328.266 23.737 334.12 18.637 342.432 18.637C346.116 18.637 348.854 19.487 352.066 21.658L353.671 17.788H355.371V32.424H353.198C352.348 24.869 349.232 21.281 343.283 21.281C338.278 21.281 334.404 24.68 334.404 29.12C334.404 32.896 335.82 34.125 344.418 37.901L348.382 39.602C355.559 42.718 358.11 45.74 358.11 51.313C358.11 59.245 351.783 64.912 342.904 64.912C338.56 64.912 335.16 63.778 331.571 60.945L329.306 65.197L327.606 65.196ZM410.626 32.613C415.63 32.613 418.463 33.463 420.635 35.635C422.805 37.807 424.035 41.868 424.035 46.403C424.035 55.845 419.311 61.135 410.907 61.135H407.507C402.502 61.135 401.651 60.379 401.651 56.224V32.614L410.626 32.613ZM401.652 3.996H409.679C417.612 3.996 421.106 7.868 421.106 16.652C421.106 20.996 420.068 24.113 417.99 26.568C415.912 28.928 413.363 29.684 408.074 29.684H401.651L401.652 3.996ZM429.512 16.463C429.512 11.551 427.434 7.208 423.846 4.468C420.635 2.107 416.952 1.068 410.812 1.068H385.974V3.428C392.774 3.807 393.718 4.564 393.718 9.663V55.468C393.718 60.568 392.963 61.228 385.974 61.796V64.063H409.867C416.857 64.063 420.635 63.212 424.6 60.756C429.323 57.735 432.44 51.973 432.44 46.023C432.44 40.924 430.267 36.296 426.583 33.463C424.6 31.953 422.523 31.103 419.123 30.44C425.923 27.89 429.513 23.075 429.513 16.464M447.855 37.241C448.802 26.381 452.388 20.808 458.432 20.808C464.571 20.808 467.688 26.098 468.255 37.241H447.855ZM460.135 61.984C451.538 61.984 447.762 55.374 447.665 40.641H475.809C475.62 26.097 469.671 18.352 458.529 18.352C447.196 18.352 440.111 27.512 440.111 42.059C440.111 56.601 447.195 65.103 459.378 65.103C468.632 65.103 474.676 59.34 475.904 49.613H472.127C470.993 57.64 466.837 61.984 460.134 61.984M480.809 22.224V20.62C486.287 19.865 489.497 19.11 493.275 17.786C493.748 19.96 494.031 22.414 494.22 26.002C497.619 20.902 501.49 18.637 506.97 18.637C512.636 18.637 517.545 21.565 519.435 26.192C520.379 28.458 520.852 31.102 520.852 34.692V57.358C520.852 61.418 521.797 62.174 527.557 62.457V64.347C522.552 63.874 520.663 63.78 517.264 63.78C513.768 63.78 511.88 63.874 506.969 64.346V62.457C512.069 62.267 513.297 61.324 513.297 57.547V34.407C513.297 26.192 510.841 22.887 504.797 22.887C498.377 22.887 494.977 26.947 494.977 34.692V57.546C494.977 61.324 496.203 62.268 501.113 62.457V64.347C496.203 63.874 494.313 63.78 490.913 63.78C487.607 63.78 485.625 63.874 480.713 64.346V62.457C486.476 62.174 487.42 61.418 487.42 57.357V26.758C487.325 22.886 486.76 22.32 482.037 22.32C481.755 22.32 481.281 22.226 480.809 22.226M531.228 64.064L556.821 21.941H545.205C539.067 21.941 537.556 23.264 534.156 31.764H532.266L534.44 19.486H566.927L541.24 61.606H552.29C558.71 61.606 561.356 59.057 564.187 50.464H566.173L563.715 64.064H531.228Z" fill="white"/>
</g>
<defs>
<clipPath id="clip0_2003_144">
<rect width="566.929" height="65.197" fill="white"/>
</clipPath>
</defs>
</svg>
